# AST/ASF file generated using VICON BodyLanguage
# -----------------------------------------------
:version 1.10
:name VICON
:units
  mass 1.0
  length 0.45
  angle deg
:documentation
   .ast/.asf automatically generated from VICON data using
   VICON BodyBuilder and BodyLanguage model FoxedUp or BRILLIANT.MOD
:root
   order TX TY TZ RX RY RZ
   axis XYZ
   position 0 0 0  
   orientation 0 0 0 
:bonedata
  begin
     id 1 
     name lhipjoint
     direction 0.64773 -0.699417 0.302095 
     length 2.48597 
     axis 0 0 0  XYZ
  end
  begin
     id 2 
     name lfemur
     direction 0.34202 -0.939693 0  
     length 6.71947  
     axis 0 0 20  XYZ
    dof rx ry rz
    limits (-160.0 20.0)
           (-70.0 70.0)
           (-60.0 70.0)
  end
  begin
     id 3 
     name ltibia
     direction 0.34202 -0.939693 0   
     length 8.08777   
     axis 0 0 20   XYZ
    dof rx
    limits (-10.0 170.0)
  end
  begin
     id 4 
     name lfoot
     direction 0.0808503 -0.222134 0.971658   
     length 2.08264   
     axis -90 7.62852e-016 20   XYZ
    dof rx rz
    limits (-45.0 90.0)
           (-70.0 20.0)
  end
  begin
     id 5 
     name ltoes
     direction 1.53502e-011 -4.22007e-011 1   
     length 1.04662   
     axis -90 7.62852e-016 20   XYZ
    dof rx
    limits (-90.0 20.0)
  end
  begin
     id 6 
     name rhipjoint
     direction -0.610924 -0.726792 0.313919   
     length 2.39233  
     axis 0 0 0  XYZ 
  end
  begin
     id 7 
     name rfemur
     direction -0.34202 -0.939693 0   
     length 6.96955   
     axis 0 0 -20   XYZ
    dof rx ry rz
    limits (-160.0 20.0)
           (-70.0 70.0)
           (-70.0 60.0)
  end
  begin
     id 8 
     name rtibia
     direction -0.34202 -0.939693 0   
     length 8.19584   
     axis 0 0 -20   XYZ
    dof rx
    limits (-10.0 170.0)
 end
 begin
     id 9 
     name rfoot
     direction -0.077777 -0.213691 0.9738   
     length 2.07539  
     axis -90 -7.62852e-016 -20   XYZ
    dof rx rz
    limits (-45.0 90.0)
           (-20.0 70.0)
  end
  begin
     id 10 
     name rtoes
     direction -1.53558e-011 -4.22006e-011 1   
     length 1.04381   
     axis -90 -7.62852e-016 -20   XYZ
    dof rx
    limits (-90.0 20.0)
  end
  begin
     id 11 
     name lowerback
     direction -0.00971646 0.996074 0.0879841   
     length 1.67643   
     axis 0 0 0   XYZ
    dof rx ry rz
    limits (-20.0 45.0)
           (-30.0 30.0)
           (-30.0 30.0)
  end
  begin
     id 12 
     name upperback
     direction 0.0127391 0.991676 0.128127   
     length 1.63741   
     axis 0 0 0   XYZ
    dof rx ry rz
    limits (-20.0 45.0)
           (-30.0 30.0)
           (-30.0 30.0)
  end
  begin
     id 13 
     name thorax
     direction 0.0167583 0.996049 0.0872067   
     length 1.65931   
     axis 0 0 0   XYZ
    dof rx ry rz
    limits (-20.0 45.0)
           (-30.0 30.0)
           (-30.0 30.0)
  end
  begin
     id 14 
     name lowerneck
     direction -0.0317829 0.998312 0.0486079   
     length 1.79021   
     axis 0 0 0   XYZ
    dof rx ry rz
    limits (-20.0 45.0)
           (-30.0 30.0)
           (-30.0 30.0)
  end
  begin
     id 15 
     name upperneck
     direction 0.0896851 0.972452 -0.215159   
     length 1.78797   
     axis 0 0 0   XYZ
    dof rx ry rz
    limits (-20.0 45.0)
           (-30.0 30.0)
           (-30.0 30.0)
  end
  begin
     id 16
     name head
     direction 0.0310949 0.996503 -0.0775582  
     length 1.81549  
     axis 0 0 0   XYZ
    dof rx ry rz
    limits (-20.0 45.0)
           (-30.0 30.0)
           (-30.0 30.0)
  end
  begin
     id 17 
     name lclavicle
     direction 0.853638 0.502051 -0.138733  
     length 3.31627  
     axis 0 0 0   XYZ
    dof ry rz
    limits (-20.0 10.0)
           (0.0 20.0)
  end
  begin
     id 18 
     name lhumerus
     direction 1 -4.48962e-011 -1.41788e-018   
     length 5.54893   
     axis 180 -30 -90   XYZ
    dof rx ry rz
    limits (-60.0 90.0)
           (-90.0 90.0)
           (-90.0 90.0)
  end
  begin
     id 19
     name lradius
     direction 1 -4.48962e-011 -4.95754e-027   
     length 3.02898   
     axis 180 -30 -90   XYZ
    dof rx
    limits (-10.0 170.0)
  end
  begin
     id 20
     name lwrist
     direction 1 -4.48952e-011 -1.03764e-026   
     length 1.51449   
     axis 9.09556e-015 90 90   XYZ
    dof ry
    limits (-180.0 0.0)
 end
  begin
     id 21 
     name lhand
     direction 1 -4.4902e-011 -2.07528e-026   
     length 0.640951   
     axis 1.3242e-014 90 90   XYZ
    dof rx rz
    limits (-90.0 90.0)
           (-45.0 45.0)
  end
  begin
     id 22 
     name lfingers
     direction 1 -4.49014e-011 -4.15056e-026   
     length 0.516751   
     axis 2.64841e-014 90 90   XYZ
    dof rx
    limits (0.0 90.0)
  end
  begin
     id 23
     name lthumb
     direction 0.707107 -6.35008e-011 0.707107   
     length 0.741954   
     axis -90 45 2.85299e-015   XYZ
    dof rx rz
    limits (-45.0 45.0)
           (-45.0 45.0)
  end
  begin
     id 24 
     name rclavicle
     direction -0.888531 0.455324 -0.0565039   
     length 3.20126  
     axis 0 0 0   XYZ 
    dof ry rz
    limits (-10.0 20.0)
           (-20.0 0.0)
  end
  begin
     id 25 
     name rhumerus
     direction -1 -4.48946e-011 -8.98298e-028  
     length 5.3519   
     axis 180 30 90   XYZ
    dof rx ry rz
    limits (-90.0 60.0)
           (-90.0 90.0)
           (-90.0 90.0)
  end
  begin
     id 26 
     name rradius
     direction -1 -4.4899e-011 -3.18779e-027   
     length 3.02531   
     axis 180 30 90   XYZ
    dof rx
    limits (-10.0 170.0)
  end
  begin
     id 27 
     name rwrist
     direction -1 -4.4897e-011 -1.03764e-026   
     length 1.51266   
     axis 9.09556e-015 -90 -90   XYZ
    dof ry
    limits (-180.0 0.0)
  end
  begin
     id 28
     name rhand
     direction -1 -4.48941e-011 -2.07528e-026   
     length 0.78389   
     axis 1.3242e-014 -90 -90   XYZ
    dof rx rz
    limits (-90.0 90.0)
           (-45.0 45.0)
  end
  begin
     id 29
     name rfingers
     direction -1 -4.49012e-011 -4.15056e-026   
     length 0.631992   
     axis 2.64841e-014 -90 -90   XYZ
    dof rx
    limits (0.0 90.0)
  end
  begin
     id 30
     name rthumb
     direction -0.707107 -6.3496e-011 0.707107   
     length 0.907418   
     axis -90 -45 -2.85299e-015   XYZ
    dof rx rz
    limits (-45.0 45.0)
           (-45.0 45.0)
  end
:hierarchy
  begin
    root lhipjoint rhipjoint lowerback
    lhipjoint lfemur
    lfemur ltibia
    ltibia lfoot
    lfoot ltoes
    rhipjoint rfemur
    rfemur rtibia
    rtibia rfoot
    rfoot rtoes
    lowerback upperback
    upperback thorax
    thorax lowerneck lclavicle rclavicle
    lowerneck upperneck
    upperneck head
    lclavicle lhumerus
    lhumerus lradius
    lradius lwrist
    lwrist lhand lthumb
    lhand lfingers
    rclavicle rhumerus
    rhumerus rradius
    rradius rwrist
    rwrist rhand rthumb
    rhand rfingers
  end

#!OML:ASF E:\Style3\Style3.ASF
:FULLY-SPECIFIED
:DEGREES
801
root -0.783757 17.8477 0.577546 -8.01458 84.0521 -22.9516
lowerback -3.21361 -2.14675 -4.83648
upperback -9.17845 -2.55991 1.45686
thorax -7.55266 -0.731937 4.30159
lowerneck -15.0317 4.99152 2.95789
upperneck 12.9317 6.38769 -1.55424
head 6.54603 3.10772 -0.335516
rclavicle -8.05078e-015 8.34896e-015
rhumerus -290.525 18.0361 -380.113
rradius 49.0266
rwrist -1.16307
rhand 3.00012 3.25966
rfingers 7.12502
rthumb 28.4607 -24.5956
lclavicle -8.05078e-015 8.34896e-015
lhumerus -303.547 -23.5019 405.273
lradius 45.3337
lwrist 28.537
lhand -1.59728 15.2545
lfingers 7.12502
lthumb 24.0596 43.7662
rfemur -20.3429 9.61801 18.2854
rtibia 17.6147
rfoot -11.0244 -13.7712
rtoes -19.3827
lfemur -16.5098 -12.8737 -12.3963
ltibia 13.0597
lfoot -10.9876 21.5076
ltoes -14.6578
802
root -0.799569 17.8468 0.579692 -11.0311 84.539 -25.9666
lowerback -3.15104 -2.04953 -4.78143
upperback -9.12541 -2.43458 1.40614
thorax -7.5477 -0.677242 4.21503
lowerneck -15.1905 4.99214 2.88071
upperneck 13.0288 6.36952 -1.353
head 6.59412 3.11049 -0.255814
rclavicle 5.96354e-015 -1.03368e-014
rhumerus -290.981 19.4538 -380.788
rradius 48.7608
rwrist -1.86488
rhand 3.1146 2.70681
rfingers 7.12502
rthumb 28.5701 -25.1301
lclavicle 5.96354e-015 -1.03368e-014
lhumerus -304.001 -24.6223 404.228
lradius 45.3476
lwrist 27.4221
lhand -1.31073 15.1901
lfingers 7.12502
lthumb 24.3343 43.6653
rfemur -20.2412 9.25045 18.4892
rtibia 17.5444
rfoot -11.0069 -13.8831
rtoes -19.2723
lfemur -16.815 -12.9601 -12.1874
ltibia 13.2691
lfoot -10.9728 21.0609
ltoes -14.9815
803
root -0.813114 17.8451 0.582146 -15.115 84.9699 -30.0409
lowerback -3.1078 -1.92441 -4.64346
upperback -9.10584 -2.26757 1.3539
thorax -7.57436 -0.605029 4.07909
lowerneck -15.3118 4.9539 2.66015
upperneck 13.1888 6.30229 -0.960596
head 6.64407 3.09972 -0.0974686
rclavicle -8.99501e-015 -1.66979e-014
rhumerus -291.63 20.923 -381.624
rradius 48.545
rwrist -2.71584
rhand 3.42209 2.04771
rfingers 7.12502
rthumb 28.8638 -25.7394
lclavicle -8.99501e-015 -1.66979e-014
lhumerus -304.43 -25.8936 402.952
lradius 45.6272
lwrist 26.4602
lhand -0.987314 14.9043
lfingers 7.12502
lthumb 24.6444 43.3375
rfemur -20.1409 8.92193 18.7392
rtibia 17.4435
rfoot -11.0026 -14.0725
rtoes -19.0292
lfemur -17.0939 -12.9485 -11.9572
ltibia 13.4913
lfoot -10.8393 20.5982
ltoes -15.5287
804
root -0.826934 17.8424 0.586116 -19.4796 85.4125 -34.4121
lowerback -3.07683 -1.84674 -4.56841
upperback -9.10286 -2.16195 1.33758
thorax -7.60231 -0.556642 4.01779
lowerneck -15.4587 4.92394 2.34412
upperneck 13.4541 6.25925 -0.506391
head 6.72789 3.10156 0.100877
rclavicle -3.99557e-014 1.59028e-015
rhumerus -292.277 22.443 -382.46
rradius 48.4228
rwrist -3.78338
rhand 3.93826 1.57367
rfingers 7.12502
rthumb 29.3568 -26.1282
lclavicle -3.99557e-014 1.59028e-015
lhumerus -304.848 -27.1751 401.532
lradius 46.0311
lwrist 25.3272
lhand -1.09682 14.5882
lfingers 7.12502
lthumb 24.5394 43.0357
rfemur -20.0745 8.71747 18.9014
rtibia 17.3482
rfoot -11.0315 -14.3269
rtoes -18.3995
lfemur -17.4062 -13.0414 -11.7467
ltibia 13.7179
lfoot -10.7598 20.2011
ltoes -15.9222
805
root -0.841538 17.842 0.591838 -24.3389 85.8792 -39.3414
lowerback -3.05004 -1.8089 -4.63718
upperback -9.13213 -2.10822 1.36102
thorax -7.6535 -0.51986 4.08111
lowerneck -15.4452 4.94287 2.23819
upperneck 13.5474 6.28818 -0.363952
head 6.74776 3.12295 0.167367
rclavicle -8.59744e-015 3.18055e-015
rhumerus -292.883 23.9302 -383.396
rradius 48.1664
rwrist -4.97299
rhand 4.35589 1.33341
rfingers 7.12502
rthumb 29.7554 -26.2979
lclavicle -8.59744e-015 3.18055e-015
lhumerus -305.133 -28.4559 400.082
lradius 46.242
lwrist 23.7425
lhand -1.33939 14.3949
lfingers 7.12502
lthumb 24.3069 42.8738
rfemur -20.0731 8.46916 19.0211
rtibia 17.2796
rfoot -10.9904 -14.619
rtoes -18.5309
lfemur -17.7813 -13.1006 -11.5728
ltibia 13.8965
lfoot -10.684 19.7496
ltoes -16.2181
806
root -0.857528 17.8426 0.598313 -30.3624 86.3864 -45.512
lowerback -3.05356 -1.73931 -4.72317
upperback -9.19271 -2.01338 1.29548
thorax -7.72847 -0.462439 4.05809
lowerneck -15.4739 4.92279 2.31667
upperneck 13.6221 6.23005 -0.278804
head 6.77586 3.10648 0.178101
rclavicle 4.42296e-015 1.66979e-014
rhumerus -293.701 25.3065 -384.314
rradius 47.8621
rwrist -6.65603
rhand 4.12597 1.09155
rfingers 7.12502
rthumb 29.536 -26.5787
lclavicle 4.42296e-015 1.66979e-014
lhumerus -305.034 -29.9489 398.179
lradius 46.4481
lwrist 21.7763
lhand -1.15892 13.9472
lfingers 7.12502
lthumb 24.4799 42.4028
rfemur -20.1666 8.19669 19.0862
rtibia 17.2365
rfoot -10.8555 -14.9652
rtoes -18.972
lfemur -18.2331 -13.1509 -11.4376
ltibia 14.0143
lfoot -10.4053 19.2684
ltoes -16.9383
807
root -0.867656 17.8427 0.602168 -38.6218 86.7939 -53.8406
lowerback -3.0911 -1.64983 -4.69588
upperback -9.18807 -1.89086 1.22627
thorax -7.71687 -0.40527 3.96438
lowerneck -15.5161 4.86337 2.31263
upperneck 13.587 6.12332 -0.13145
head 6.76541 3.06757 0.215156
rclavicle -4.37326e-015 2.62396e-014
rhumerus -294.499 26.5838 -385.143
rradius 47.598
rwrist -8.63397
rhand 3.53756 0.805045
rfingers 7.12502
rthumb 28.9741 -26.9632
lclavicle -4.37326e-015 2.62396e-014
lhumerus -304.72 -31.3745 396.087
lradius 46.6973
lwrist 19.5151
lhand -0.478141 13.0715
lfingers 7.12502
lthumb 25.1323 41.4372
rfemur -20.1763 7.90755 19.213
rtibia 17.2347
rfoot -10.8671 -15.2848
rtoes -19.0632
lfemur -18.5198 -13.2949 -11.2684
ltibia 14.0437
lfoot -10.1765 18.88
ltoes -17.3191
808
root -0.87347 17.843 0.604601 -47.8986 87.0761 -63.1123
lowerback -3.14426 -1.53615 -4.6753
upperback -9.1318 -1.73629 1.17706
thorax -7.64178 -0.335211 3.8936
lowerneck -15.585 4.80275 2.2539
upperneck 13.5607 6.02952 -0.000780172
head 6.7614 3.0304 0.257716
rclavicle 9.79014e-015 -6.36111e-015
rhumerus -295.385 27.7676 -386.113
rradius 47.5342
rwrist -10.7503
rhand 3.40576 0.00845012
rfingers 7.12502
rthumb 28.8482 -27.7813
lclavicle 9.79014e-015 -6.36111e-015
lhumerus -304.288 -32.6522 393.979
lradius 47.0527
lwrist 16.8438
lhand 0.424245 12.2086
lfingers 7.12502
lthumb 25.9967 40.4503
rfemur -20.0561 7.62182 19.3503
rtibia 17.1899
rfoot -10.909 -15.5117
rtoes -19.3091
lfemur -18.7023 -13.4016 -11.1345
ltibia 14.0875
lfoot -10.0083 18.5265
ltoes -17.3596
809
root -0.878074 17.8431 0.606618 -57.878 87.2514 -73.0059
lowerback -3.21883 -1.41815 -4.7087
upperback -9.0047 -1.57641 1.17148
thorax -7.47531 -0.262899 3.89802
lowerneck -15.6207 4.76588 2.16393
upperneck 13.4607 5.98227 0.0846579
head 6.72901 3.01006 0.293535
rclavicle 1.74931e-014 -2.54444e-014
rhumerus -296.292 28.8583 -387.263
rradius 47.5408
rwrist -12.9041
rhand 3.11062 -1.16876
rfingers 7.12502
rthumb 28.5663 -29.0063
lclavicle 1.74931e-014 -2.54444e-014
lhumerus -303.644 -33.8658 391.671
lradius 47.466
lwrist 13.855
lhand 1.01027 11.339
lfingers 7.12502
lthumb 26.5577 39.4971
rfemur -19.8066 7.41314 19.4692
rtibia 17.065
rfoot -10.9165 -15.7284
rtoes -19.2369
lfemur -18.7847 -13.5308 -11.0342
ltibia 14.1716
lfoot -9.8803 18.163
ltoes -17.6689
810
root -0.884183 17.8437 0.607439 -70.0204 87.2214 -85.0129
lowerback -3.3587 -1.37201 -4.66777
upperback -8.78391 -1.50458 1.31844
thorax -7.15777 -0.242203 4.02202
lowerneck -15.6449 4.78549 1.95355
upperneck 13.2459 6.05033 0.0886204
head 6.6573 3.03173 0.332054
rclavicle 8.69683e-016 7.95139e-015
rhumerus -296.745 29.9183 -387.889
rradius 47.6397
rwrist -15.7467
rhand 2.01896 -2.49275
rfingers 7.12502
rthumb 27.5227 -30.501
lclavicle 8.69683e-016 7.95139e-015
lhumerus -303.125 -34.7749 389.54
lradius 47.8682
lwrist 10.205
lhand 1.30592 9.98977
lfingers 7.12502
lthumb 26.8406 38.1047
rfemur -19.489 7.12549 19.7485
rtibia 16.8932
rfoot -10.8664 -15.9303
rtoes -19.3728
lfemur -18.8472 -13.5578 -10.8354
ltibia 14.307
lfoot -9.6439 17.7123
ltoes -18.7679
811
root -0.89111 17.8421 0.608034 -82.7462 87.0988 -97.6752
lowerback -3.43182 -1.36935 -4.64633
upperback -8.64269 -1.49119 1.48826
thorax -6.95994 -0.241382 4.1853
lowerneck -15.7982 4.81579 1.61895
upperneck 13.1832 6.14293 0.200799
head 6.64884 3.06814 0.4331
rclavicle 7.50412e-015 -2.38542e-015
rhumerus -297.052 30.941 -388.446
rradius 47.6072
rwrist -19.0735
rhand 0.319275 -3.58169
rfingers 7.12502
rthumb 25.8961 -31.8381
lclavicle 7.50412e-015 -2.38542e-015
lhumerus -302.521 -35.6901 387.252
lradius 48.3046
lwrist 6.36616
lhand 0.768411 8.70218
lfingers 7.12502
lthumb 26.3262 36.8951
rfemur -19.2841 6.90437 19.956
rtibia 16.7475
rfoot -10.8826 -16.2297
rtoes -19.0887
lfemur -19.0233 -13.7111 -10.6141
ltibia 14.4345
lfoot -9.51684 17.312
ltoes -19.227
812
root -0.896647 17.839 0.6095 -93.8699 86.9158 -108.803
lowerback -3.45638 -1.27282 -4.6344
upperback -8.59471 -1.35764 1.51374
thorax -6.90774 -0.176944 4.20143
lowerneck -15.9546 4.77022 1.47517
upperneck 13.2099 6.09603 0.287896
head 6.67601 3.04491 0.483259
rclavicle 3.60297e-015 9.93923e-015
rhumerus -297.889 31.6897 -389.996
rradius 46.9876
rwrist -21.2075
rhand -0.380264 -3.70459
rfingers 7.12502
rthumb 25.2261 -32.0572
lclavicle 3.60297e-015 9.93923e-015
lhumerus -301.295 -36.7368 384.376
lradius 48.7938
lwrist 2.52732
lhand 0.254054 7.58345
lfingers 7.12502
lthumb 25.8337 35.849
rfemur -19.177 6.72439 20.0729
rtibia 16.6248
rfoot -10.8317 -16.5547
rtoes -18.9778
lfemur -19.2904 -13.8232 -10.4699
ltibia 14.587
lfoot -9.35266 16.9557
ltoes -19.8013
813
root -0.901141 17.8379 0.609531 -101.836 86.7224 -116.749
lowerback -3.4835 -1.11578 -4.62977
upperback -8.54743 -1.14627 1.47514
thorax -6.86429 -0.0754933 4.15244
lowerneck -15.9889 4.67012 1.42085
upperneck 13.1318 5.96137 0.342634
head 6.65254 2.98188 0.494836
rclavicle -1.11816e-014 1.23246e-014
rhumerus -298.844 32.327 -391.606
rradius 46.4468
rwrist -23.1782
rhand -0.855749 -3.61316
rfingers 7.12502
rthumb 24.7705 -32.0291
lclavicle -1.11816e-014 1.23246e-014
lhumerus -299.744 -37.6731 381.133
lradius 49.3083
lwrist -1.22493
lhand 0.0552003 6.65638
lfingers 7.12502
lthumb 25.6432 34.9495
rfemur -19.0678 6.45549 20.169
rtibia 16.5644
rfoot -10.8647 -16.7323
rtoes -18.9139
lfemur -19.4616 -14.0587 -10.365
ltibia 14.697
lfoot -9.33596 16.7671
ltoes -19.8877
814
root -0.90414 17.838 0.611095 -108.875 86.4692 -123.758
lowerback -3.4938 -0.967529 -4.62028
upperback -8.49031 -0.94935 1.41804
thorax -6.81813 0.0170109 4.0818
lowerneck -16.1098 4.56173 1.30175
upperneck 13.0719 5.80383 0.550189
head 6.64276 2.91756 0.565621
rclavicle -8.19987e-015 1.07344e-014
rhumerus -299.873 32.8075 -392.962
rradius 46.4968
rwrist -26.1481
rhand -1.94999 -4.27671
rfingers 7.12502
rthumb 23.7214 -32.8328
lclavicle -8.19987e-015 1.07344e-014
lhumerus -297.989 -38.4086 377.625
lradius 49.9789
lwrist -4.45247
lhand -0.0406994 5.91674
lfingers 7.12502
lthumb 25.5514 34.2231
rfemur -18.9621 6.13733 20.2867
rtibia 16.5626
rfoot -10.9869 -16.8756
rtoes -18.746
lfemur -19.5946 -14.2024 -10.2677
ltibia 14.7598
lfoot -9.18948 16.461
ltoes -20.067
